<svg xmlns="http://www.w3.org/2000/svg" width="18.518" height="16" viewBox="0 0 18.518 16">
  <path id="ic_visibility_off_24px" d="M10.263,6.368a4.212,4.212,0,0,1,4.211,4.211,4.087,4.087,0,0,1-.3,1.541l2.459,2.459a9.951,9.951,0,0,0,2.888-4,9.959,9.959,0,0,0-9.263-6.316A9.806,9.806,0,0,0,6.9,4.853L8.722,6.672A4.087,4.087,0,0,1,10.263,6.368Zm-8.421-2.3,1.92,1.92.387.387A9.94,9.94,0,0,0,1,10.579a9.955,9.955,0,0,0,12.952,5.608l.354.354L16.773,19l1.069-1.069L2.912,3ZM6.5,8.726,7.8,10.032a2.376,2.376,0,0,0-.067.547,2.523,2.523,0,0,0,2.526,2.526,2.376,2.376,0,0,0,.547-.067l1.305,1.305A4.183,4.183,0,0,1,6.5,8.726Zm3.629-.657,2.653,2.653.017-.135a2.523,2.523,0,0,0-2.526-2.526Z" transform="translate(-1 -3)" fill="#9faab5"/>
</svg>
