<svg xmlns="http://www.w3.org/2000/svg" width="19.141" height="19.141" viewBox="0 0 19.141 19.141">
  <path id="Icon_awesome-route" data-name="Icon awesome-route" d="M15.552,11.963H11.963a1.2,1.2,0,1,1,0-2.393h3.589s3.589-4,3.589-5.982a3.589,3.589,0,1,0-7.178,0,7.886,7.886,0,0,0,1.694,3.589H11.963a3.589,3.589,0,1,0,0,7.178h3.589a1.2,1.2,0,1,1,0,2.393H6.935a25.811,25.811,0,0,1-1.768,2.393H15.552a3.589,3.589,0,1,0,0-7.178Zm0-9.571a1.2,1.2,0,1,1-1.2,1.2A1.2,1.2,0,0,1,15.552,2.393ZM3.589,9.571A3.59,3.59,0,0,0,0,13.16c0,1.981,3.589,5.982,3.589,5.982s3.589-4,3.589-5.982A3.59,3.59,0,0,0,3.589,9.571Zm0,4.785a1.2,1.2,0,1,1,1.2-1.2A1.2,1.2,0,0,1,3.589,14.356Z" fill="#2b3745"/>
</svg>
